<svg xmlns="http://www.w3.org/2000/svg" id="avatar" viewBox="0 0 512 512">
  <path d="M256,3.5C116.55,3.5,3.5,116.55,3.5,256A251.58,251.58,0,0,0,66.57,423c46.27,52.45,114,78.54,189.43,78.54,76.95,0,145.86-27.42,192.17-81.71A251.48,251.48,0,0,0,508.5,256C508.5,116.55,395.45,3.5,256,3.5Z" style="fill:#f4da92"></path>
  <path d="M325.46,471.91V331.43c-1.56-.87-3.08-1.74-4.51-2.59-2.59-1.52-5-3-7.06-4.3a22.37,22.37,0,0,1-10.37-18.87V270.61h-95v35.06a22.37,22.37,0,0,1-10.37,18.87c-2.1,1.33-4.47,2.78-7.06,4.3-3.45,2-7.29,4.17-11.42,6.29l-2.39,1.2V471.91Z" style="fill:#f39965"></path>
  <path d="M457.24,408.51a252.5,252.5,0,0,1-402.48,0c9.21-43.2,48.24-52.67,77.08-57.92,3.52-.63,6.93-1.21,10.1-1.78A126.18,126.18,0,0,0,170,339.72c1-.43,2-.88,3-1.33a43,43,0,0,0,7.24,13.18c10.75,13.68,50.26,36.27,50.26,36.27,7.21,12.1,23.54,56.38,23.54,56.38s.4-1,.94-2.31,1.23-2.89,1.81-4c6.8-13.46,20.85-50,20.85-50,17.28-7.07,43.25-15.45,52.91-31.18A86.79,86.79,0,0,0,339,338.4c9.67,4.5,20.41,8.49,31,10.41,2.33.39,4.83.84,7.38,1.28C406.46,355.24,447.73,363.93,457.24,408.51Z" style="fill:#62525c"></path>
  <path d="m339.75 394.45-59.4-3.15L254 444.22h0L275.9 384.7s30.14-30 30.32-68.39L334 335l5 3.36ZM254 444.22h0L228.8 391.3 163.21 395 170 339.72l7.59-4.82 27.55-17.52c-1.1 40 28.08 67.32 28.08 67.32Z" style="fill:#fff"></path>
  <path d="M343.31 187.2c-6.37-1-12.62 5.12-14.88 19.5s.32 31.58 6.7 32.58 14.11-14.57 16.37-28.95S349.69 188.2 343.31 187.2ZM170.43 187.2c6.37-1 12.63 5.12 14.89 19.5s-.33 31.58-6.7 32.58-14.11-14.57-16.38-28.95S164.06 188.2 170.43 187.2Z" style="fill:#fba56c"></path>
  <path d="M334.59,143.57c-10.68-39.38-77.71-44.18-77.72-44.18h0s-67,4.8-77.71,44.18-4.5,59.27-4.5,59.27,5.83,59.72,19.83,71.83,24.74,46.6,62.38,45.95h0c37.64.65,48.38-33.84,62.38-45.95s19.83-71.83,19.83-71.83S345.26,183,334.59,143.57Z" style="fill:#fba56c"></path>
  <path d="M181.51,223.39l-4.74-48.95,14.06-13.91a9.61,9.61,0,0,0,2.86-6.83V138.35l12.57-15.42a9.79,9.79,0,0,1,7.41-3.6c26.7-.45,101.2,6.69,102.19,18,1.06,12,12.16,23.53,16.39,36.6l-.52,49.48h5.87c7.17-25.4,14.75-89.75,14.75-89.75l8.46,6.8c0-18.82-7.4-28.24-7.4-28.24l11.1,7.32C355,90.24,334.9,80.3,334.9,80.3h13.22c-14.28-9.41-43.9-16.48-43.9-16.48L322.73,61c-36-15.17-68.22,2.87-68.22,2.87l13.22-17.51c-76.15.52-74,46-74,46s-37.55,14.12-38.08,34c-.51,19.29,19.89,92.74,21.1,97.07Z" style="fill:#3b4346"></path>
  <path d="M209.62,116.78a1,1,0,0,1-.86-.49L200,101.51c-1.75-3-3.73-6.3-4.24-10.05-.83-6,2.48-12.73,8.41-17.11,5.29-3.9,11.88-5.78,17.69-7.44a1,1,0,0,1,.55,1.92c-5.93,1.69-12,3.44-17,7.13-5.36,4-8.35,9.93-7.62,15.23.46,3.35,2.33,6.51,4,9.3l8.76,14.78a1,1,0,0,1-.35,1.37A1.06,1.06,0,0,1,209.62,116.78Z" style="fill:#434d51"></path>
  <path d="M213.42 110.45a1 1 0 0 1-1-.79c-1.59-7.37-3.39-15.73-1.14-23.67 1.61-5.68 5.34-11 10.79-15.53 5.12-4.21 11.09-7.14 16.26-9.45a1 1 0 1 1 .81 1.83c-5 2.25-10.86 5.11-15.8 9.17-3.58 2.94-8.24 7.85-10.13 14.53-2.12 7.46-.37 15.56 1.17 22.7a1 1 0 0 1-.77 1.19A.75.75 0 0 1 213.42 110.45ZM227.38 114.9a1 1 0 0 1-1-.93c-1-13.17 6.51-27.43 19.22-36.33 9.87-6.9 22.55-11.12 39.9-13.27a1 1 0 0 1 1.11.87 1 1 0 0 1-.87 1.12c-17 2.11-29.4 6.21-39 12.92-12.15 8.5-19.36 22-18.38 34.54a1 1 0 0 1-.92 1.07Z" style="fill:#434d51"></path>
  <path d="M243.77,114.68a.92.92,0,0,1-.36-.07,1,1,0,0,1-.57-1.29,60.49,60.49,0,0,1,72.37-36.46,1,1,0,0,1,.7,1.22,1,1,0,0,1-1.23.71,58.51,58.51,0,0,0-70,35.25A1,1,0,0,1,243.77,114.68Z" style="fill:#434d51"></path>
  <path d="M256,113.16a1,1,0,0,1-.77-.35,1,1,0,0,1,.13-1.41c24-20.08,59.68-25.73,88.73-14.07a1,1,0,1,1-.74,1.85c-28.39-11.39-63.23-5.86-86.71,13.75A1,1,0,0,1,256,113.16Z" style="fill:#434d51"></path>
  <path d="M268.81 116.35a1 1 0 0 1-.92-.61 1 1 0 0 1 .53-1.31 97.82 97.82 0 0 1 75.2-.41 1 1 0 0 1-.78 1.85 95.74 95.74 0 0 0-73.63.4A1.1 1.1 0 0 1 268.81 116.35ZM339.13 133.65a1 1 0 0 1-.75-.33c-11-12.3-29.6-17.42-45.31-12.44a1 1 0 0 1-.61-1.91c16.44-5.2 35.93.15 47.41 13a1 1 0 0 1-.74 1.66ZM170.58 144.57a1 1 0 0 1-1-1c0-11.54 3.23-18.7 11.53-25.54a48.46 48.46 0 0 1 16-9 1 1 0 0 1 .66 1.89 46.42 46.42 0 0 0-15.41 8.67c-7.87 6.5-10.8 13-10.8 24A1 1 0 0 1 170.58 144.57Z" style="fill:#434d51"></path>
  <path d="M179,157.15a1,1,0,0,1-1-.86,36.3,36.3,0,0,1,22.12-38.41,1,1,0,1,1,.76,1.84A34.29,34.29,0,0,0,180,156a1,1,0,0,1-.86,1.12Z" style="fill:#434d51"></path>
  <path d="M165.72,163.27a1,1,0,0,1-1-.75c-2.54-9.79-5.7-22-2-33.05,2.1-6.28,6.36-12.12,12.67-17.36,5.53-4.59,11.86-8.11,18-11.52a1,1,0,0,1,1,1.75c-6,3.36-12.3,6.84-17.69,11.31-6,5-10.07,10.53-12.05,16.46-3.51,10.5-.43,22.37,2.05,31.91a1,1,0,0,1-.72,1.22A1.07,1.07,0,0,1,165.72,163.27Z" style="fill:#434d51"></path>
  <path d="M319.22,188.37c-5.35-10.9-25.32-7.15-34.08-4.14-5.87,2-11.29,4.42-13,6.81,0,0-7.35,9.17-8.25,13.52-.66,3.17-3.05,17.5-1.44,28.07,1.28,11.91-4,13.05-4.7,13.44a3.94,3.94,0,0,1-3.51,0c-7.17-2.83-4.61-15.27-4.61-15.27,1.11-10.33-1.06-23.25-1.68-26.24-.9-4.35-8.25-13.52-8.25-13.52-30.87-19.81-45.29-4.46-46.88-2.58,0,.06,0,.13.09.12,27.38-4.73,25.46,11.08,25.46,11.08s9.52,2.85,17,5.22c4.4,1.4,8.26,2.62,8.51,3,3,5.11-2.95,26.19-2.95,26.19s0,0,0,.14c-.93.79-5.56,5.07-4.56,10.7,1.1,6.26,3.44,5.89,6,6.07s5.91-.55,8.12,0,2.6,2.43,5.51,2.57,3.31-2,5.52-2.57,5.52.19,8.12,0,4.93.19,6-6.07-4.73-10.84-4.73-10.84-3.92-20.34-3-26.19c.27-1.64,8.73-3,8.73-3s17-11,18-12.94c3.89-7.39,22.11-3.6,24.34-3.36C319.15,188.59,319.27,188.47,319.22,188.37Z" style="fill:#f39965"></path>
  <path d="M263.56 249.54a1.37 1.37 0 0 1-.67-2.18 3.53 3.53 0 0 1 1.68-1.12c2-.61 4.79-.91 5.1.92C269.94 248.81 268 250.83 263.56 249.54ZM248.27 249.54a1.36 1.36 0 0 0 .66-2.18 3.53 3.53 0 0 0-1.68-1.12c-2-.61-4.79-.91-5.09.92C241.88 248.81 243.85 250.83 248.27 249.54Z" style="fill:#cc7752"></path>
  <path d="M203.62,203.48a19.1,19.1,0,0,0,6.59,4.55h0a19.8,19.8,0,0,0,9.25,1.54c10.07-.7,15.85-4.69,15.85-4.69l0,0a19.5,19.5,0,0,0-9.35-8.51,16.74,16.74,0,0,0-9.55-.85,9.61,9.61,0,0,0-1.59.21A16.22,16.22,0,0,0,203.62,203.48Z" style="fill:#f1f2f2"></path>
  <path d="M212.44,200.94a7.82,7.82,0,1,0,14.37-4.27,22.16,22.16,0,0,0-10.81-.88,15.18,15.18,0,0,0-1.81.23A7.81,7.81,0,0,0,212.44,200.94Z" style="fill:#4c5f6a"></path>
  <path d="M220.26,197.21a3.73,3.73,0,1,1-3.72,3.73A3.73,3.73,0,0,1,220.26,197.21Z" style="fill:#3b4346"></path>
  <path d="M235.31,204.88s-2.5-14-17.09-13c-8.63.61-14.28,6.77-14.6,11.63C203.62,203.48,220.26,185.31,235.31,204.88Z" style="fill:#e89064"></path>
  <path d="M206.53,203.42s.06-.88,4.37-4.53,11.79-2.79,14.92-1.53,9.09,7.13,9.47,7.5c-.25-.51-6.07-11.87-18.91-9.59a16.77,16.77,0,0,0-12.76,8.21,19.1,19.1,0,0,0,6.59,4.55A13.55,13.55,0,0,1,206.53,203.42Z" style="fill:#3b4346"></path>
  <circle cx="221.66" cy="199.77" r="1.73" style="fill:#fff"></circle>
  <path d="M308.38,203.48a19.1,19.1,0,0,1-6.59,4.55h0a19.8,19.8,0,0,1-9.25,1.54c-10.07-.7-15.85-4.69-15.85-4.69l0,0a19.85,19.85,0,0,1,9.42-8.47,16.4,16.4,0,0,1,9.45-1,16.81,16.81,0,0,1,1.67.26A16.23,16.23,0,0,1,308.38,203.48Z" style="fill:#f1f2f2"></path>
  <path d="M299.56,200.94a7.82,7.82,0,1,1-14.37-4.27,22.16,22.16,0,0,1,10.81-.88,15.18,15.18,0,0,1,1.81.23A7.81,7.81,0,0,1,299.56,200.94Z" style="fill:#4c5f6a"></path>
  <path d="M291.74,197.21a3.73,3.73,0,1,0,3.72,3.73A3.73,3.73,0,0,0,291.74,197.21Z" style="fill:#3b4346"></path>
  <path d="M276.69,204.88s2.5-14,17.09-13c8.63.61,14.28,6.77,14.6,11.63C308.38,203.48,291.74,185.31,276.69,204.88Z" style="fill:#e89064"></path>
  <path d="M305.47,203.42s-.06-.88-4.37-4.53-11.79-2.79-14.92-1.53-9.09,7.13-9.47,7.5c.25-.51,6.07-11.87,18.91-9.59a16.77,16.77,0,0,1,12.76,8.21,19.1,19.1,0,0,1-6.59,4.55A13.55,13.55,0,0,0,305.47,203.42Z" style="fill:#3b4346"></path>
  <circle cx="290.34" cy="199.77" r="1.73" style="fill:#fff"></circle>
  <path d="M319.43 184c-1-1.81-7.26-6.81-10.67-9.47a5.55 5.55 0 0 0-4.88-1c-5.52 1.5-18.22 4.92-24.72 6.31-5.91 1.27-8 6.28-8.7 9.18a1.68 1.68 0 0 0 1.68 2.09 37.8 37.8 0 0 0 12.46-3s14-4.43 21.14-4.43c5.46 0 11 3.32 13.28 4.89a.83.83 0 0 0 1.29-.67A7.65 7.65 0 0 0 319.43 184ZM241.54 189.05c-.72-2.9-2.79-7.91-8.7-9.18-6.5-1.39-19.2-4.81-24.71-6.31a5.59 5.59 0 0 0-4.9 1c-3.41 2.65-9.64 7.65-10.66 9.46a7.65 7.65 0 0 0-.88 3.92.83.83 0 0 0 1.29.67c2.3-1.57 7.82-4.89 13.28-4.89 6.91 0 20.22 4.14 21.1 4.42a.13.13 0 0 1 .08 0 37.84 37.84 0 0 0 12.42 3A1.68 1.68 0 0 0 241.54 189.05Z" style="fill:#434d51"></path>
  <path d="M262.17 230.8c-.09-.79-.17-1.29-.17-1.29ZM263.74 265.34a8.78 8.78 0 0 0-5.71 1.28 3.9 3.9 0 0 1-4.06 0 8.78 8.78 0 0 0-5.71-1.28c-4.81.59-17 6.2-22.94 8.56 0 0 15.07 9.6 17.46 10.26a41.87 41.87 0 0 0 12.81 1.75 49.06 49.06 0 0 0 13.63-1.75c2.39-.66 17.46-10.26 17.46-10.26C280.72 271.54 268.55 265.93 263.74 265.34Z" style="fill:#f39965"></path>
  <path d="M227.19,274.22c7.11.06,14.18.95,21.28.56,4.81-.09,9.39.51,14.17,0,4.14-.3,10-.41,14.23-.51,2.37,0,4.74,0,7.12,0-2.36.24-4.73.39-7.09.6-3.53.25-10.62.78-14.15,1.06-4.68.6-9.58,0-14.24,0-7.11.21-14.26-1-21.32-1.69Z" style="fill:#cc7752"></path>
</svg>
